<svg xmlns="http://www.w3.org/2000/svg"
     width="24" height="24" viewBox="0 0 24 24"
     fill="none" stroke="currentColor" stroke-width="1.8"
     stroke-linecap="round" stroke-linejoin="round"
     role="img" aria-label="Settings">
  <path d="M12 2.75
           c.45 0 .89.04 1.32.12
           l.52 2.02
           c.48.18.94.42 1.36.72
           l1.97-.63
           c.62.52 1.2 1.1 1.72 1.72
           l-.63 1.97
           c.3.42.54.88.72 1.36
           l2.02.52
           c.08.43.12.87.12 1.32
           s-.04.89-.12 1.32
           l-2.02.52
           c-.18.48-.42.94-.72 1.36
           l.63 1.97
           c-.52.62-1.1 1.2-1.72 1.72
           l-1.97-.63
           c-.42.3-.88.54-1.36.72
           l-.52 2.02
           c-.43.08-.87.12-1.32.12
           s-.89-.04-1.32-.12
           l-.52-2.02
           c-.48-.18-.94-.42-1.36-.72
           l-1.97.63
           c-.62-.52-1.2-1.1-1.72-1.72
           l.63-1.97
           c-.3-.42-.54-.88-.72-1.36
           l-2.02-.52
           c-.08-.43-.12-.87-.12-1.32
           s.04-.89.12-1.32
           l2.02-.52
           c.18-.48.42-.94.72-1.36
           l-.63-1.97
           c.52-.62 1.1-1.2 1.72-1.72
           l1.97.63
           c.42-.3.88-.54 1.36-.72
           l.52-2.02
           c.43-.08.87-.12 1.32-.12z"/>
  <circle cx="12" cy="12" r="3.25"/>
</svg>
